<svg width="12" height="12" viewBox="0 0 12 12" fill="none" xmlns="http://www.w3.org/2000/svg">
<path d="M5.39287 6L2.3167 9.6668C2.26514 9.72773 2.3085 9.82031 2.38818 9.82031H3.32334C3.37842 9.82031 3.43115 9.7957 3.46748 9.75352L6.00459 6.72891L8.5417 9.75352C8.57686 9.7957 8.62959 9.82031 8.68584 9.82031H9.621C9.70069 9.82031 9.74405 9.72773 9.69248 9.6668L6.61631 6L9.69248 2.3332C9.70403 2.31962 9.71144 2.30301 9.71383 2.28534C9.71623 2.26767 9.7135 2.24969 9.70597 2.23352C9.69844 2.21736 9.68644 2.20369 9.67137 2.19415C9.65631 2.18461 9.63883 2.17959 9.621 2.17969H8.68584C8.63077 2.17969 8.57803 2.2043 8.5417 2.24648L6.00459 5.27109L3.46748 2.24648C3.43233 2.2043 3.37959 2.17969 3.32334 2.17969H2.38818C2.3085 2.17969 2.26514 2.27226 2.3167 2.3332L5.39287 6Z" fill="#78694A"/>
</svg>
