<svg width="639" height="298" viewBox="0 0 639 298" fill="none" xmlns="http://www.w3.org/2000/svg">
<path fill-rule="evenodd" clip-rule="evenodd" d="M165.81 39.8894L252.839 70.6055L295.515 147.423L281.868 239.537L211.878 297.578H119.712L49.789 234.477L32.718 147.414L80.5168 70.5948L165.81 39.8894ZM165.821 43.464L82.7578 73.3667L36.2773 148.067L52.8775 232.728L121.006 294.21H210.664L278.726 237.769L292.017 148.059L250.515 73.356L165.821 43.464Z" fill="url(#paint0_linear_0_1)" fill-opacity="0.98"/>
<path d="M82.7578 73.3667L165.821 43.464L250.515 73.356L292.017 148.059L278.726 237.769L210.664 294.21H121.006L52.8775 232.728L36.2773 148.067L82.7578 73.3667Z" fill="url(#paint1_linear_0_1)" fill-opacity="0.98"/>
<path d="M82.3986 74.1009L120.263 295.79L291.986 147.637L82.3986 74.1009Z" fill="url(#paint2_linear_0_1)" fill-opacity="0.68"/>
<path d="M165.719 43.2563L52.9204 231.815L278.517 236.866L165.719 43.2563Z" fill="url(#paint3_linear_0_1)" fill-opacity="0.68"/>
<path d="M135.415 93.7632L209.492 119.017L248.214 184.675L190.973 235.182L110.162 233.499L96.6936 159.422L135.415 93.7632Z" fill="#FAF9F9"/>
<path d="M371.4 146.1C365.4 146.1 360.067 144.8 355.4 142.2C350.8 139.533 347.233 136 344.7 131.6C342.167 127.133 340.9 122.267 340.9 117C340.9 111.733 342.167 106.867 344.7 102.4C347.233 97.8667 350.8 94.3 355.4 91.7C360.067 89.0333 365.4 87.7 371.4 87.7C377.4 87.7 382.7 89.0333 387.3 91.7C391.967 94.3 395.567 97.8667 398.1 102.4C400.633 106.867 401.9 111.733 401.9 117C401.9 122.267 400.633 127.133 398.1 131.6C395.567 136 391.967 139.533 387.3 142.2C382.7 144.8 377.4 146.1 371.4 146.1ZM371.4 140.1C375.867 140.1 379.733 139.067 383 137C386.267 134.933 388.767 132.167 390.5 128.7C392.3 125.167 393.2 121.267 393.2 117C393.2 112.667 392.3 108.733 390.5 105.2C388.767 101.667 386.267 98.8667 383 96.8C379.733 94.6667 375.867 93.6 371.4 93.6C366.933 93.6 363.067 94.6667 359.8 96.8C356.533 98.8667 354.033 101.7 352.3 105.3C350.567 108.833 349.7 112.767 349.7 117.1C349.7 121.433 350.567 125.333 352.3 128.8C354.033 132.267 356.533 135.033 359.8 137.1C363.067 139.1 366.933 140.1 371.4 140.1ZM444.598 146C436.598 146 430.665 144.067 426.798 140.2C422.998 136.333 421.098 131.133 421.098 124.6V94H413.598V88.7H436.698V94H429.198V125.7C429.198 130.167 430.565 133.667 433.298 136.2C436.098 138.733 439.932 140 444.798 140C450.065 140 454.132 138.733 456.998 136.2C459.932 133.667 461.398 130.133 461.398 125.6V94H453.998V88.7H475.898V94H468.298V125.3C468.298 132.033 466.132 137.167 461.798 140.7C457.532 144.233 451.798 146 444.598 146ZM485.791 139.7H493.591V94H485.791V88.7H515.391C521.391 88.7 526.057 89.9667 529.391 92.5C532.791 94.9667 534.491 98.6 534.491 103.4C534.491 111.933 529.657 116.933 519.991 118.4L532.891 139.7H541.191V145H527.291L512.191 119.2H505.291V113.7H514.091C518.557 113.7 521.724 112.733 523.591 110.8C525.457 108.8 526.391 106.367 526.391 103.5C526.391 100.7 525.457 98.4333 523.591 96.7C521.791 94.9 519.091 94 515.491 94H501.791V139.7H509.591V145H485.791V139.7ZM352.2 253.7H360V208H344.6V222.3H338.5V202.7H389.3V222.3H383.2V208H368.1V253.7H375.9V259H352.2V253.7ZM398.659 253.7H405.859L422.159 208H415.859V202.7H443.359V208H436.859L453.659 253.7H460.459V259H437.559V253.7H445.059L439.359 237.3H418.959L413.359 253.7H420.859V259H398.659V253.7ZM437.759 232L429.559 208.1H428.959L420.559 232H437.759ZM495.84 226.6C502.773 227.8 507.74 229.633 510.74 232.1C513.807 234.5 515.34 238.3 515.34 243.5C515.34 246.5 514.64 249.267 513.24 251.8C511.84 254.267 509.773 256.267 507.04 257.8C504.307 259.267 501.073 260 497.34 260C493.873 260 490.707 259.3 487.84 257.9C485.04 256.5 482.74 254.567 480.94 252.1V259H474.44V240H480.44C480.84 244.2 482.507 247.633 485.44 250.3C488.44 252.9 492.307 254.2 497.04 254.2C500.507 254.2 503.207 253.367 505.14 251.7C507.073 250.033 508.04 247.7 508.04 244.7C508.04 242.3 507.607 240.433 506.74 239.1C505.873 237.7 504.473 236.633 502.54 235.9C500.673 235.1 497.973 234.4 494.44 233.8L492.04 233.4C486.373 232.467 481.973 230.667 478.84 228C475.707 225.267 474.14 221.6 474.14 217C474.14 212.133 475.74 208.367 478.94 205.7C482.14 202.967 486.44 201.6 491.84 201.6C494.907 201.6 497.673 202.133 500.14 203.2C502.673 204.2 504.707 205.667 506.24 207.6V202.7H512.64V218.6H506.74C505.473 211.133 500.64 207.4 492.24 207.4C488.84 207.4 486.173 208.2 484.24 209.8C482.373 211.4 481.44 213.533 481.44 216.2C481.44 219 482.44 221.2 484.44 222.8C486.44 224.333 489.473 225.467 493.54 226.2L495.84 226.6ZM527.486 253.7H535.286V208H527.486V202.7H551.286V208H543.486V229.5L566.686 208H560.286V202.7H583.586V208H576.186L551.786 230.6L576.586 253.7H584.086V259H559.986V253.7H566.586L543.486 232.3V253.7H551.286V259H527.486V253.7ZM619.367 226.6C626.301 227.8 631.267 229.633 634.267 232.1C637.334 234.5 638.867 238.3 638.867 243.5C638.867 246.5 638.167 249.267 636.767 251.8C635.367 254.267 633.301 256.267 630.567 257.8C627.834 259.267 624.601 260 620.867 260C617.401 260 614.234 259.3 611.367 257.9C608.567 256.5 606.267 254.567 604.467 252.1V259H597.967V240H603.967C604.367 244.2 606.034 247.633 608.967 250.3C611.967 252.9 615.834 254.2 620.567 254.2C624.034 254.2 626.734 253.367 628.667 251.7C630.601 250.033 631.567 247.7 631.567 244.7C631.567 242.3 631.134 240.433 630.267 239.1C629.401 237.7 628.001 236.633 626.067 235.9C624.201 235.1 621.501 234.4 617.967 233.8L615.567 233.4C609.901 232.467 605.501 230.667 602.367 228C599.234 225.267 597.667 221.6 597.667 217C597.667 212.133 599.267 208.367 602.467 205.7C605.667 202.967 609.967 201.6 615.367 201.6C618.434 201.6 621.201 202.133 623.667 203.2C626.201 204.2 628.234 205.667 629.767 207.6V202.7H636.167V218.6H630.267C629.001 211.133 624.167 207.4 615.767 207.4C612.367 207.4 609.701 208.2 607.767 209.8C605.901 211.4 604.967 213.533 604.967 216.2C604.967 219 605.967 221.2 607.967 222.8C609.967 224.333 613.001 225.467 617.067 226.2L619.367 226.6Z" fill="#0942AD"/>
<defs>
<linearGradient id="paint0_linear_0_1" x1="46.1865" y1="120.7" x2="344.176" y2="260.435" gradientUnits="userSpaceOnUse">
<stop offset="0.29938" stop-color="#2D60BA"/>
<stop offset="1" stop-color="#2D60BA" stop-opacity="0"/>
</linearGradient>
<linearGradient id="paint1_linear_0_1" x1="46.1865" y1="120.7" x2="344.176" y2="260.435" gradientUnits="userSpaceOnUse">
<stop offset="0.29938" stop-color="#2D60BA"/>
<stop offset="1" stop-color="#2D60BA" stop-opacity="0"/>
</linearGradient>
<linearGradient id="paint2_linear_0_1" x1="90.3685" y1="68.0954" x2="315.556" y2="309.259" gradientUnits="userSpaceOnUse">
<stop stop-color="white"/>
<stop offset="0.68488" stop-color="white" stop-opacity="0"/>
</linearGradient>
<linearGradient id="paint3_linear_0_1" x1="293.669" y1="68.5097" x2="128.681" y2="324.411" gradientUnits="userSpaceOnUse">
<stop stop-color="white"/>
<stop offset="0.968553" stop-color="white" stop-opacity="0"/>
<stop offset="1" stop-color="white" stop-opacity="0.0481938"/>
</linearGradient>
</defs>
</svg>
