<svg width="13" height="13" viewBox="0 0 13 13" fill="none" xmlns="http://www.w3.org/2000/svg">
<path d="M5.57692 1.42308V5.57692H1.42308C1.17826 5.57692 0.943474 5.67418 0.770363 5.84729C0.597252 6.0204 0.5 6.25518 0.5 6.5C0.5 6.74481 0.597252 6.9796 0.770363 7.15271C0.943474 7.32583 1.17826 7.42308 1.42308 7.42308H5.57692V11.5769C5.57692 11.8217 5.67417 12.0565 5.84729 12.2296C6.0204 12.4028 6.25519 12.5 6.5 12.5C6.74481 12.5 6.9796 12.4028 7.15271 12.2296C7.32583 12.0565 7.42308 11.8217 7.42308 11.5769V7.42308H11.5769C11.8217 7.42308 12.0565 7.32583 12.2296 7.15271C12.4028 6.9796 12.5 6.74481 12.5 6.5C12.5 6.25519 12.4028 6.0204 12.2296 5.84729C12.0565 5.67417 11.8217 5.57692 11.5769 5.57692H7.42308V1.42308C7.42308 1.17826 7.32583 0.943474 7.15271 0.770363C6.9796 0.597252 6.74481 0.5 6.5 0.5C6.25518 0.5 6.0204 0.597252 5.84729 0.770363C5.67418 0.943474 5.57692 1.17826 5.57692 1.42308Z" fill="#9C8960" stroke="white"/>
</svg>
